<?xml version="1.0" standalone="no"?>
<!DOCTYPE svg PUBLIC "-//W3C//DTD SVG 20010904//EN"
 "http://www.w3.org/TR/2001/REC-SVG-20010904/DTD/svg10.dtd">
<svg version="1.0" xmlns="http://www.w3.org/2000/svg"
 width="160.000000pt" height="172.000000pt" viewBox="0 0 160.000000 172.000000"
 preserveAspectRatio="xMidYMid meet">
  <rect fill="#fff" width="160.000000" height="172.000000"/>
<g transform="translate(0.000000,172.000000) scale(0.100000,-0.100000)"
fill="#000000" stroke="none">
<path d="M615 1565 c-93 -17 -170 -47 -243 -94 -74 -48 -104 -87 -147 -192
-32 -77 -35 -93 -35 -186 0 -57 -4 -105 -10 -108 -14 -9 -12 -55 4 -84 23 -41
145 -158 211 -202 36 -24 65 -46 65 -50 0 -4 21 -12 48 -18 l47 -12 -3 -98
c-4 -108 19 -229 62 -324 30 -68 44 -79 102 -75 66 4 84 31 91 137 3 44 9 81
13 81 4 0 10 -22 13 -49 7 -55 34 -116 65 -144 14 -13 32 -17 59 -15 36 3 39
5 54 53 9 30 18 44 23 37 10 -16 81 -15 94 1 6 7 12 53 14 103 2 71 6 89 18
89 11 0 18 -20 27 -75 7 -41 17 -92 23 -112 10 -37 12 -38 55 -38 51 0 81 22
90 67 3 16 13 48 23 73 13 34 17 76 17 165 0 111 -2 123 -25 157 -37 55 -67
68 -154 68 -44 0 -76 4 -76 10 0 6 7 10 15 10 8 0 15 5 15 10 0 6 6 10 13 10
30 0 109 84 138 147 25 56 29 75 29 156 0 241 -130 413 -376 497 -68 24 -245
26 -359 5z m330 -23 c98 -33 194 -93 251 -156 100 -110 134 -194 134 -330 0
-96 -30 -156 -113 -231 -95 -85 -187 -125 -322 -141 -33 -3 -65 -10 -70 -15
-16 -12 -223 -32 -269 -25 -47 7 -155 81 -259 176 -63 58 -119 141 -99 148 8
2 12 34 12 101 0 106 17 173 65 255 67 115 224 202 415 230 71 10 208 4 255
-12z m354 -861 c29 -15 43 -32 59 -72 26 -61 30 -175 8 -217 -8 -15 -19 -54
-25 -87 -7 -39 -18 -66 -32 -77 -52 -43 -81 -9 -98 116 -6 43 -14 83 -17 88
-7 11 -161 4 -172 -7 -3 -3 -11 -57 -17 -120 -12 -119 -23 -145 -59 -145 -49
0 -81 63 -98 191 -10 74 -15 89 -30 89 -10 0 -18 -6 -19 -12 0 -7 -4 -62 -8
-121 -8 -98 -11 -111 -35 -136 -15 -15 -35 -27 -46 -26 -34 2 -69 45 -85 104
-9 31 -23 74 -32 96 -21 55 -29 234 -11 257 9 12 43 19 123 27 162 17 284 39
335 60 14 5 69 10 123 10 78 1 106 -3 136 -18z m-179 -344 c0 -85 -8 -107 -40
-107 -26 0 -52 68 -48 125 3 46 5 50 33 56 57 12 55 15 55 -74z"/>
<path d="M903 1184 c-39 -43 -43 -51 -43 -99 0 -77 31 -119 90 -123 77 -6 131
7 162 38 24 25 28 36 28 85 0 103 -39 145 -134 145 -58 0 -61 -1 -103 -46z
m95 -46 c-2 -26 -8 -34 -27 -36 -13 -2 -28 1 -33 6 -14 14 21 61 45 62 15 0
18 -7 15 -32z"/>
<path d="M458 1203 c-35 -40 -59 -104 -52 -136 19 -91 63 -121 162 -115 58 4
68 8 93 36 49 55 38 146 -23 203 -29 26 -39 29 -99 29 -50 0 -70 -4 -81 -17z
m82 -51 c0 -29 -27 -59 -52 -57 -24 2 -26 21 -7 58 13 23 59 23 59 -1z"/>
<path d="M710 820 c0 -6 32 -10 75 -10 43 0 75 4 75 10 0 6 -32 10 -75 10 -43
0 -75 -4 -75 -10z"/>
</g>
</svg>
